<svg width="16" height="16" viewBox="0 0 16 16" fill="none" xmlns="http://www.w3.org/2000/svg">
<path d="M16 15.1579L9.81162 8.96642C10.5731 8.02005 11.0301 6.82105 11.0301 5.51779C11.0301 2.47419 8.55711 0 5.51503 0C2.47295 0 0 2.47419 0 5.51779C0 8.5614 2.47295 11.0356 5.51503 11.0356C6.81764 11.0356 8.01603 10.5784 8.96192 9.81654L15.1423 16L16 15.1579ZM1.2024 5.51779C1.2024 3.13985 3.13828 1.20301 5.51503 1.20301C7.89178 1.20301 9.82766 3.13985 9.82766 5.51779C9.82766 7.89574 7.89178 9.83258 5.51503 9.83258C3.13828 9.83258 1.2024 7.89574 1.2024 5.51779Z" fill="#BFBFBF"/>
</svg>
