<svg width="20" height="13" viewBox="0 0 20 13" fill="none" xmlns="http://www.w3.org/2000/svg">
<path d="M0 0V12.0609H20V0H0ZM11.9037 2.30561H13.0755V3.72488H11.9037V2.30561ZM11.9037 5.3208H13.0755V6.74007H11.9037V5.3208ZM9.41406 2.30561H10.5859V3.72488H9.41406V2.30561ZM9.41406 5.3208H10.5859V6.74007H9.41406V5.3208ZM6.92445 2.30561H8.09633V3.72488H6.92445V2.30561ZM6.92445 5.3208H8.09633V6.74007H6.92445V5.3208ZM4.4348 2.30561H5.60668V3.72488H4.4348V2.30561ZM4.4348 5.3208H5.60668V6.74007H4.4348V5.3208ZM3.11707 9.75527H1.9452V8.336H3.11707V9.75527ZM3.11707 6.74007H1.9452V5.3208H3.11707V6.74007ZM3.11707 3.72488H1.9452V2.30561H3.11707V3.72488ZM13.112 9.75527H4.39836V8.336H13.112V9.75527ZM15.5652 9.75527H14.3933V8.336H15.5652V9.75527ZM15.5652 6.74007H14.3933V5.3208H15.5652V6.74007ZM18.0548 9.75527H16.8829V8.336H18.0548V9.75527ZM18.0548 6.74007H16.8829V5.3208H18.0548V6.74007ZM18.0913 3.72488H14.3568V2.30561H18.0913V3.72488Z" fill="#888888"/>
</svg>
